<svg width="32" height="32" viewBox="0 0 32 32" fill="none" xmlns="http://www.w3.org/2000/svg">
<rect width="32" height="32" fill="#0D0D2B"/>
<path d="M23.375 23.5C22.5417 24.0667 21.4917 24.5083 20.225 24.825C18.975 25.1417 17.6417 25.3 16.225 25.3C14.4583 25.3 12.9583 25.0833 11.725 24.65C10.4917 24.2 9.55833 23.5833 8.925 22.8C8.29167 22 7.975 21.0917 7.975 20.075C7.975 19.1417 8.23333 18.3167 8.75 17.6C9.26667 16.8833 9.975 16.35 10.875 16C10.1917 15.6333 9.65833 15.1333 9.275 14.5C8.90833 13.8667 8.725 13.1583 8.725 12.375C8.725 11.425 9.01667 10.5583 9.6 9.775C10.1833 8.99167 11.0667 8.36667 12.25 7.9C13.4333 7.43333 14.8833 7.2 16.6 7.2C17.7333 7.2 18.8417 7.31667 19.925 7.55C21.0083 7.76667 21.95 8.06667 22.75 8.45L21.625 11.55C20.0917 10.8333 18.4667 10.475 16.75 10.475C15.45 10.475 14.4667 10.675 13.8 11.075C13.15 11.4583 12.825 11.9833 12.825 12.65C12.825 13.2667 13.0417 13.7417 13.475 14.075C13.925 14.3917 14.6 14.55 15.5 14.55H20.275V17.75H15.25C14.2333 17.75 13.45 17.925 12.9 18.275C12.35 18.625 12.075 19.1333 12.075 19.8C12.075 20.5 12.425 21.05 13.125 21.45C13.8417 21.8333 14.9333 22.025 16.4 22.025C17.4333 22.025 18.4667 21.8917 19.5 21.625C20.5333 21.3417 21.4083 20.95 22.125 20.45L23.375 23.5Z" fill="white"/>
</svg>
