<svg width="170" viewBox="0 0 127 40" fill="none" xmlns="http://www.w3.org/2000/svg">
<path d="M20 39.9999C31.0457 39.9999 40 31.0456 40 19.9999C40 8.95418 31.0457 -0.00012207 20 -0.00012207C8.9543 -0.00012207 0 8.95418 0 19.9999C0 31.0456 8.9543 39.9999 20 39.9999Z" fill="white" fill-opacity="0.1"/>
<path d="M19.6156 9.67634C19.9908 8.96519 21.0092 8.96519 21.3844 9.67634L24.0912 14.8065C24.2358 15.0807 24.4996 15.2724 24.8051 15.3252L30.5206 16.3141C31.3129 16.4512 31.6276 17.4199 31.0672 17.9965L27.0246 22.156C26.8085 22.3784 26.7077 22.6884 26.7519 22.9953L27.5775 28.7367C27.692 29.5325 26.868 30.1312 26.1465 29.7764L20.9412 27.217C20.663 27.0801 20.337 27.0801 20.0588 27.217L14.8535 29.7764C14.132 30.1312 13.308 29.5325 13.4225 28.7367L14.2481 22.9953C14.2923 22.6884 14.1915 22.3784 13.9754 22.156L9.93278 17.9965C9.37238 17.4199 9.68711 16.4512 10.4794 16.3141L16.1949 15.3252C16.5004 15.2724 16.7642 15.0807 16.9088 14.8065L19.6156 9.67634Z" fill="#758EF5"/>
<path d="M19.6156 13.6763C19.9908 12.9652 21.0092 12.9652 21.3844 13.6763L22.8686 16.4893C23.0133 16.7635 23.277 16.9551 23.5825 17.008L26.7164 17.5502C27.5087 17.6873 27.8234 18.6559 27.263 19.2325L25.0464 21.5132C24.8303 21.7356 24.7295 22.0456 24.7737 22.3526L25.2264 25.5006C25.3408 26.2965 24.5169 26.8951 23.7953 26.5403L20.9412 25.137C20.663 25.0001 20.337 25.0001 20.0588 25.137L17.2047 26.5403C16.4831 26.8951 15.6592 26.2965 15.7736 25.5006L16.2263 22.3526C16.2705 22.0456 16.1697 21.7356 15.9536 21.5132L13.737 19.2325C13.1766 18.6559 13.4913 17.6873 14.2836 17.5502L17.4175 17.008C17.723 16.9551 17.9867 16.7635 18.1314 16.4893L19.6156 13.6763Z" fill="#3E00FF"/>
<path d="M57.2912 27V13.9091H65.8054V15.897H59.6626V19.451H65.3643V21.4389H59.6626V25.0121H65.8565V27H57.2912ZM76.6025 19.777L74.4931 20.0071C74.4334 19.794 74.329 19.5938 74.1799 19.4062C74.035 19.2188 73.839 19.0675 73.5918 18.9524C73.3446 18.8374 73.0421 18.7798 72.6841 18.7798C72.2026 18.7798 71.7978 18.8842 71.4696 19.093C71.1458 19.3018 70.986 19.5724 70.9902 19.9048C70.986 20.1903 71.0904 20.4226 71.3035 20.6016C71.5208 20.7805 71.8787 20.9276 72.3773 21.0426L74.052 21.4006C74.981 21.6009 75.6713 21.9183 76.1231 22.353C76.579 22.7876 76.8091 23.3565 76.8134 24.0597C76.8091 24.6776 76.628 25.223 76.2701 25.696C75.9164 26.1648 75.4242 26.5312 74.7935 26.7955C74.1628 27.0597 73.4384 27.1918 72.6202 27.1918C71.4185 27.1918 70.4512 26.9403 69.7182 26.4375C68.9853 25.9304 68.5485 25.2251 68.4079 24.3217L70.6642 24.1044C70.7665 24.5476 70.9838 24.8821 71.3162 25.108C71.6486 25.3338 72.0812 25.4467 72.6138 25.4467C73.1635 25.4467 73.6046 25.3338 73.937 25.108C74.2736 24.8821 74.4419 24.603 74.4419 24.2706C74.4419 23.9893 74.3333 23.7571 74.116 23.5739C73.9029 23.3906 73.5705 23.25 73.1188 23.152L71.4441 22.8004C70.5023 22.6044 69.8056 22.2741 69.3539 21.8097C68.9022 21.3409 68.6785 20.7486 68.6827 20.0327C68.6785 19.4276 68.8425 18.9034 69.1749 18.4602C69.5115 18.0128 69.9782 17.6676 70.5748 17.4247C71.1756 17.1776 71.8681 17.054 72.6522 17.054C73.8027 17.054 74.7083 17.299 75.3688 17.7891C76.0336 18.2791 76.4448 18.9418 76.6025 19.777ZM83.7241 27.1918C82.7653 27.1918 81.9343 26.9808 81.2312 26.5589C80.5281 26.1371 79.9826 25.5469 79.5948 24.7884C79.2113 24.0298 79.0195 23.1435 79.0195 22.1293C79.0195 21.1151 79.2113 20.2266 79.5948 19.4638C79.9826 18.701 80.5281 18.1087 81.2312 17.6868C81.9343 17.2649 82.7653 17.054 83.7241 17.054C84.6829 17.054 85.5139 17.2649 86.217 17.6868C86.9201 18.1087 87.4634 18.701 87.847 19.4638C88.2347 20.2266 88.4286 21.1151 88.4286 22.1293C88.4286 23.1435 88.2347 24.0298 87.847 24.7884C87.4634 25.5469 86.9201 26.1371 86.217 26.5589C85.5139 26.9808 84.6829 27.1918 83.7241 27.1918ZM83.7369 25.3381C84.2568 25.3381 84.6914 25.1953 85.0409 24.9098C85.3903 24.62 85.6502 24.2322 85.8207 23.7464C85.9954 23.2607 86.0828 22.7195 86.0828 22.1229C86.0828 21.522 85.9954 20.9787 85.8207 20.4929C85.6502 20.0028 85.3903 19.6129 85.0409 19.3232C84.6914 19.0334 84.2568 18.8885 83.7369 18.8885C83.2042 18.8885 82.761 19.0334 82.4073 19.3232C82.0579 19.6129 81.7958 20.0028 81.6211 20.4929C81.4507 20.9787 81.3654 21.522 81.3654 22.1229C81.3654 22.7195 81.4507 23.2607 81.6211 23.7464C81.7958 24.2322 82.0579 24.62 82.4073 24.9098C82.761 25.1953 83.2042 25.3381 83.7369 25.3381ZM96.0153 17.1818V18.9716H90.3711V17.1818H96.0153ZM91.7646 14.8295H94.0785V24.0469C94.0785 24.358 94.1254 24.5966 94.2191 24.7628C94.3171 24.9247 94.445 25.0355 94.6026 25.0952C94.7603 25.1548 94.935 25.1847 95.1268 25.1847C95.2717 25.1847 95.4038 25.174 95.5231 25.1527C95.6467 25.1314 95.7404 25.1122 95.8044 25.0952L96.1943 26.9041C96.0707 26.9467 95.8938 26.9936 95.6637 27.0447C95.4379 27.0959 95.1609 27.1257 94.8328 27.1342C94.2532 27.1513 93.7312 27.0639 93.2667 26.8722C92.8022 26.6761 92.4336 26.3736 92.1609 25.9645C91.8924 25.5554 91.7603 25.044 91.7646 24.4304V14.8295ZM102.912 27.1918C101.927 27.1918 101.077 26.9872 100.361 26.5781C99.6495 26.1648 99.1019 25.581 98.7184 24.8267C98.3349 24.0682 98.1431 23.1754 98.1431 22.1484C98.1431 21.1385 98.3349 20.2521 98.7184 19.4893C99.1062 18.7223 99.6474 18.1257 100.342 17.6996C101.037 17.2692 101.853 17.054 102.79 17.054C103.395 17.054 103.966 17.152 104.503 17.348C105.044 17.5398 105.522 17.8381 105.935 18.2429C106.353 18.6477 106.681 19.1634 106.919 19.7898C107.158 20.4119 107.277 21.1534 107.277 22.0142V22.7237H99.2298V21.1641H105.059C105.055 20.7209 104.959 20.3267 104.772 19.9815C104.584 19.6321 104.322 19.3572 103.985 19.157C103.653 18.9567 103.265 18.8565 102.822 18.8565C102.349 18.8565 101.934 18.9716 101.576 19.2017C101.218 19.4276 100.939 19.7259 100.738 20.0966C100.542 20.4631 100.442 20.8658 100.438 21.3047V22.6662C100.438 23.2372 100.542 23.7273 100.751 24.1364C100.96 24.5412 101.252 24.8523 101.627 25.0696C102.002 25.2827 102.441 25.3892 102.944 25.3892C103.28 25.3892 103.585 25.3423 103.858 25.2486C104.13 25.1506 104.367 25.0078 104.567 24.8203C104.767 24.6328 104.919 24.4006 105.021 24.1236L107.181 24.3665C107.045 24.9375 106.785 25.4361 106.402 25.8622C106.022 26.2841 105.537 26.6122 104.944 26.8466C104.352 27.0767 103.674 27.1918 102.912 27.1918ZM109.955 27V17.1818H112.199V18.8182H112.301C112.48 18.2514 112.787 17.8146 113.221 17.5078C113.66 17.1967 114.161 17.0412 114.723 17.0412C114.851 17.0412 114.994 17.0476 115.152 17.0604C115.314 17.0689 115.448 17.0838 115.554 17.1051V19.2337C115.456 19.1996 115.301 19.1697 115.088 19.1442C114.879 19.1143 114.677 19.0994 114.481 19.0994C114.059 19.0994 113.679 19.1911 113.343 19.3743C113.01 19.5533 112.748 19.8026 112.556 20.1222C112.365 20.4418 112.269 20.8104 112.269 21.228V27H109.955ZM120.461 27.1982C119.839 27.1982 119.279 27.0874 118.78 26.8658C118.286 26.6399 117.894 26.3075 117.604 25.8686C117.318 25.4297 117.176 24.8885 117.176 24.245C117.176 23.6911 117.278 23.233 117.482 22.8707C117.687 22.5085 117.966 22.2188 118.32 22.0014C118.674 21.7841 119.072 21.62 119.515 21.5092C119.963 21.3942 120.425 21.3111 120.902 21.2599C121.477 21.2003 121.944 21.147 122.302 21.1001C122.66 21.049 122.92 20.9723 123.082 20.87C123.248 20.7635 123.331 20.5994 123.331 20.3778V20.3395C123.331 19.858 123.188 19.4851 122.903 19.2209C122.617 18.9567 122.206 18.8246 121.669 18.8246C121.102 18.8246 120.653 18.9482 120.321 19.1953C119.992 19.4425 119.771 19.7344 119.656 20.071L117.495 19.7642C117.666 19.1676 117.947 18.669 118.339 18.2685C118.731 17.8636 119.21 17.5611 119.777 17.3608C120.344 17.1562 120.97 17.054 121.656 17.054C122.129 17.054 122.6 17.1094 123.069 17.2202C123.538 17.331 123.966 17.5142 124.354 17.7699C124.742 18.0213 125.053 18.3643 125.287 18.799C125.526 19.2337 125.645 19.777 125.645 20.429V27H123.421V25.6513H123.344C123.203 25.924 123.005 26.1797 122.75 26.4183C122.498 26.6527 122.181 26.8423 121.797 26.9872C121.418 27.1278 120.973 27.1982 120.461 27.1982ZM121.062 25.4979C121.526 25.4979 121.929 25.4062 122.27 25.223C122.611 25.0355 122.873 24.7884 123.056 24.4815C123.244 24.1747 123.338 23.8402 123.338 23.478V22.321C123.265 22.3807 123.142 22.4361 122.967 22.4872C122.796 22.5384 122.605 22.5831 122.392 22.6214C122.178 22.6598 121.968 22.6939 121.759 22.7237C121.55 22.7536 121.369 22.7791 121.215 22.8004C120.87 22.8473 120.561 22.924 120.289 23.0305C120.016 23.1371 119.801 23.2862 119.643 23.478C119.485 23.6655 119.406 23.9084 119.406 24.2067C119.406 24.6328 119.562 24.9545 119.873 25.1719C120.184 25.3892 120.58 25.4979 121.062 25.4979Z" fill="white"/>
</svg>
